<?xml version="1.0" encoding="UTF-8"?>
<svg version="1.1" xmlns="http://www.w3.org/2000/svg" width="1150" height="530">
<path d="M0 0 C7.58798166 7.1026097 10.46040645 15.52556016 11.26227593 25.76689744 C11.33056691 28.0729826 11.33951287 30.37074868 11.32254028 32.67776489 C11.32424913 33.54793869 11.32595798 34.41811249 11.32771862 35.31465518 C11.33098506 38.19960286 11.3200572 41.08431242 11.30908203 43.96923828 C11.3085173 46.04950454 11.30883568 48.1297712 11.30996704 50.21003723 C11.31053914 55.83533396 11.29880795 61.4605448 11.28481913 67.08582163 C11.27228794 72.9728085 11.27113938 78.8597975 11.26876831 84.74679565 C11.26256056 95.88480326 11.24615927 107.02277144 11.22606933 118.16076171 C11.2036884 130.84514822 11.19271138 143.52953665 11.18267846 156.213938 C11.16179243 182.29759507 11.12663015 208.3812172 11.08203125 234.46484375 C1.88509871 234.7673713 -7.31009815 234.99767707 -16.51093769 235.13840199 C-20.78456319 235.20598187 -25.0547628 235.29745131 -29.32641602 235.44555664 C-33.45701806 235.58785887 -37.58434912 235.66473963 -41.71721458 235.69824791 C-43.28561091 235.72209001 -44.85384722 235.76865803 -46.42083168 235.83933449 C-58.32620053 236.35446204 -58.32620053 236.35446204 -62.64266586 233.20739365 C-66.32117852 229.70141458 -69.09716734 225.66957152 -71.91796875 221.46484375 C-73.23576745 219.78586723 -74.56580885 218.11627318 -75.91796875 216.46484375 C-76.54832031 215.66949219 -77.17867187 214.87414062 -77.828125 214.0546875 C-80.7501719 210.43353406 -83.76618361 206.89529806 -86.78125 203.3515625 C-90.44254013 199.04297245 -94.02657713 194.67598066 -97.59375 190.2890625 C-100.66074777 186.56227361 -103.78809603 182.8878411 -106.9375 179.23046875 C-107.79127126 178.23099401 -108.63473091 177.22259491 -109.46632957 176.20459747 C-110.43275401 175.04636164 -111.43408048 173.91637011 -112.46782875 172.81780243 C-117.54348356 166.98374188 -117.74766447 162.06970989 -117.59912109 154.54101562 C-117.59999725 153.36941895 -117.60087341 152.19782227 -117.60177612 150.99072266 C-117.59761283 147.13765625 -117.55101464 143.28635415 -117.50390625 139.43359375 C-117.49270962 136.75456801 -117.48387642 134.07563862 -117.47817993 131.39660645 C-117.45958313 125.07836303 -117.41041772 118.76074772 -117.35008299 112.44278002 C-117.28285548 105.24572254 -117.24998832 98.04863395 -117.21991038 90.85134029 C-117.15731293 76.05552124 -117.0518798 61.26019348 -116.91796875 46.46484375 C-111.42709977 51.93401534 -111.42709977 51.93401534 -109.0078125 54.7421875 C-108.24500977 55.62487305 -108.24500977 55.62487305 -107.46679688 56.52539062 C-106.93505859 57.14478516 -106.40332031 57.76417969 -105.85546875 58.40234375 C-105.28892578 59.05912109 -104.72238281 59.71589844 -104.13867188 60.39257812 C-99.89448196 65.31659378 -95.66549388 70.25372762 -91.43920898 75.19311523 C-87.24711988 80.08995339 -83.02588024 84.9611026 -78.79980469 89.82861328 C-74.38156028 94.9209403 -69.99026394 100.03595239 -65.61132812 105.16210938 C-63.33281099 107.87553594 -63.33281099 107.87553594 -60.91796875 110.46484375 C-60.91210251 109.33224625 -60.90623627 108.19964874 -60.90019226 107.0327301 C-60.84287308 96.33675833 -60.77006341 85.64098807 -60.68225384 74.9452219 C-60.63760796 69.44697612 -60.59833902 63.94880345 -60.5715332 58.45043945 C-60.54544266 53.13996833 -60.50499942 47.82977942 -60.45478249 42.51948357 C-60.43815266 40.49783792 -60.42661427 38.47614351 -60.42035484 36.45443916 C-60.41067147 33.61328977 -60.38256171 30.7728561 -60.3503418 27.93188477 C-60.35177689 27.1039743 -60.35321198 26.27606384 -60.35469055 25.42306519 C-60.19654676 15.5032576 -56.97763096 7.49806527 -49.91796875 0.46484375 C-35.7866304 -10.30627408 -14.25929917 -11.41324761 0 0 Z " fill="#EF785D" transform="translate(693.91796875,67.53515625)"/>
<path d="M0 0 C0.00546844 1.2136322 0.00546844 1.2136322 0.01104736 2.45178223 C0.04902046 10.10195143 0.10597785 17.75163866 0.18390274 25.40149689 C0.22329857 29.33376152 0.25552535 33.26580487 0.27099609 37.19824219 C0.28621529 40.99811155 0.32075237 44.79737225 0.36830902 48.5969696 C0.38306897 50.04166859 0.39103791 51.4864545 0.39188385 52.93122864 C0.40111981 60.80055101 0.44649072 67.30703037 5 74 C9.45222275 78.29346773 15.64278653 80.20963239 21.5 81.8125 C22.36238281 82.05621338 23.22476563 82.29992676 24.11328125 82.55102539 C33.09556109 84.96719253 42.21569788 86.66571545 51.34317017 88.42483521 C80.24445624 94.00165902 113.49408384 101.05831799 131.21484375 127.0390625 C142.49844609 145.75453421 142.56058148 163.85911027 138.22265625 184.7421875 C133.28328108 203.77892099 121.99189297 219.27762567 105.11328125 229.38671875 C93.42116784 236.05815742 81.51510586 240.05589756 68.22558594 242.06079102 C66.47516998 242.32606346 66.47516998 242.32606346 64.68939209 242.59669495 C63.8018927 242.72978561 62.91439331 242.86287628 62 243 C61.99453156 241.68907631 61.99453156 241.68907631 61.98895264 240.35166931 C61.95101722 232.09786731 61.89410158 223.84445821 61.81609726 215.5909338 C61.77666157 211.34812354 61.7444541 207.1055196 61.72900391 202.86254883 C61.7138113 198.76444677 61.67932036 194.66691209 61.63169098 190.56906319 C61.61690386 189.00909939 61.60896052 187.44905457 61.60811615 185.88902092 C61.60573651 183.69615741 61.57858118 181.50484933 61.54589844 179.31225586 C61.53701599 178.06649277 61.52813354 176.82072968 61.51898193 175.53721619 C60.8655189 171.08341949 59.50868751 168.72441974 57 165 C50.05926556 160.00475472 41.4483845 157.60230002 33.25 155.5 C32.15236328 155.20939697 31.05472656 154.91879395 29.92382812 154.61938477 C20.8516153 152.29630629 11.71246909 150.5792432 2.5 148.9375 C-21.64845133 144.62066834 -44.84080599 137.55048001 -62 119 C-62.54140625 118.45214844 -63.0828125 117.90429688 -63.640625 117.33984375 C-72.82443595 107.61698303 -78.20716113 94.33410825 -79 81 C-79.05285156 80.12988281 -79.10570313 79.25976562 -79.16015625 78.36328125 C-79.72470009 59.9787885 -73.64709954 41.62551342 -61.26953125 27.890625 C-46.17366377 11.8608901 -22.38575211 -0.17824272 0 0 Z " fill="#885BA1" transform="translate(82,62)"/>
<path d="M0 0 C111.26678141 0 111.26678141 0 141 25 C141.85980469 25.69738281 142.71960938 26.39476562 143.60546875 27.11328125 C160.5398854 41.47471676 171.4970523 61.91791939 174 84 C175.35385279 107.54538108 171.27927055 130.79463113 155.35546875 149.09765625 C152.64069999 152.13434919 149.82454511 155.06551751 147 158 C146.42765625 158.64710938 145.8553125 159.29421875 145.265625 159.9609375 C133.47601751 172.90519727 116.05757726 180.30493434 99.5 184.8125 C98.79004883 185.00755127 98.08009766 185.20260254 97.34863281 185.40356445 C66.51240263 193.18816733 28.98746355 189 0 189 C0 126.63 0 64.26 0 0 Z M42 33 C42 73.59 42 114.18 42 156 C78.6916232 156.67938108 78.6916232 156.67938108 110 140 C110.74636719 139.35546875 111.49273437 138.7109375 112.26171875 138.046875 C123.79471967 127.47332577 130.11628487 113.14795684 131.16015625 97.6171875 C131.698195 81.56959706 126.46902657 66.46032895 115.6875 54.5625 C102.21485772 40.42278136 85.98894902 35.37361863 67 33 C58.75 33 50.5 33 42 33 Z " fill="#848484" transform="translate(0,341)"/>
<path d="M0 0 C93.1649061 0 93.1649061 0 110.75 16.25 C121.40169203 27.70559331 123.71524011 40.405501 123.28125 55.52734375 C122.78875531 65.40801844 119.33352719 73.81368269 112.16015625 80.7890625 C110.99782181 81.78675337 109.81747472 82.76419229 108.61328125 83.7109375 C106.95055445 85.03950855 105.47905564 86.47179145 104 88 C104.76183594 88.23074219 105.52367187 88.46148437 106.30859375 88.69921875 C119.93533553 93.00329574 131.13345288 98.98134419 138 112 C143.79811175 126.18136886 144.84980273 141.72431704 139.33984375 156.1953125 C133.30784456 168.82206299 122.88143431 177.56288532 110.05859375 182.94140625 C74.84996258 195.12727987 36.56287261 189 0 189 C0 126.63 0 64.26 0 0 Z M42 31 C42 46.51 42 62.02 42 78 C60.93279443 79.39168359 60.93279443 79.39168359 77.1328125 72.12890625 C83.2138855 65.61698799 84.47762965 60.03631575 84.30859375 51.2265625 C83.71565744 45.02700053 81.30051635 40.97700757 76.875 36.6875 C65.74790179 28.97031898 55.57351934 31 42 31 Z M42 107 C42 123.83 42 140.66 42 158 C46.516875 158.061875 51.03375 158.12375 55.6875 158.1875 C57.08315186 158.21481201 58.47880371 158.24212402 59.91674805 158.27026367 C72.00676179 158.34937232 84.46414476 157.32330548 93.5234375 148.51953125 C98.65105693 142.75466432 99.46976557 137.48353915 99.3046875 130 C98.66002125 123.6525169 95.95240608 119.63511412 91.4375 115.25 C77.68348893 104.05249657 58.42042302 107 42 107 Z " fill="#848484" transform="translate(532,341)"/>
<path d="M0 0 C25.74 0 51.48 0 78 0 C78 78.54 78 157.08 78 238 C52.26 238 26.52 238 0 238 C0 159.46 0 80.92 0 0 Z " fill="#74589A" transform="translate(240,64)"/>
<path d="M0 0 C10.56 0 21.12 0 32 0 C43.15707458 21.85875836 53.32189364 44.21188526 63.43557739 66.56808472 C68.34588687 77.4196018 73.36163006 88.2172844 78.43850708 98.99176025 C83.19051248 109.08160298 87.84354082 119.2122946 92.4375 129.375 C98.68849509 143.20328468 105.10897296 156.94687302 111.60050964 170.66372681 C114.06986233 175.8855432 116.53484117 181.1094919 118.9609375 186.3515625 C119.55720947 187.63667725 119.55720947 187.63667725 120.16552734 188.94775391 C121 191 121 191 121 193 C105.82 193 90.64 193 75 193 C72.9375 188.400625 70.875 183.80125 68.75 179.0625 C68.10772461 177.63043213 67.46544922 176.19836426 66.80371094 174.72290039 C65.99864284 172.9272779 65.19366195 171.13161567 64.39031982 169.33522034 C63.1639499 166.59301111 61.93302548 163.85328799 60.68554688 161.12060547 C60.32009766 160.3163916 59.95464844 159.51217773 59.578125 158.68359375 C59.2677832 158.0073999 58.95744141 157.33120605 58.63769531 156.63452148 C58 155 58 155 58 153 C29.95 153.33 1.9 153.66 -27 154 C-36.405 173.305 -36.405 173.305 -46 193 C-60.85 193 -75.7 193 -91 193 C-89.52072158 188.56216475 -88.02171335 184.7709651 -85.98046875 180.6171875 C-85.68594818 180.01424866 -85.39142761 179.41130981 -85.08798218 178.7901001 C-84.45459054 177.49364241 -83.81967745 176.19792712 -83.18338013 174.90289307 C-81.46985953 171.41368143 -79.76941122 167.91812756 -78.0703125 164.421875 C-77.72442581 163.71028229 -77.37853912 162.99868958 -77.02217102 162.26553345 C-73.78568497 155.58984335 -70.66294076 148.86500368 -67.5625 142.125 C-62.50403135 131.1426436 -57.26981093 120.25631469 -51.97052002 109.38879395 C-46.80981713 98.79985752 -41.79126198 88.15674128 -36.86328125 77.45703125 C-32.54091268 68.09899683 -28.06454796 58.82192008 -23.55279541 49.55435181 C-18.31362852 38.7869126 -13.21649466 27.95996156 -8.2109375 17.08203125 C-7.71464844 16.004375 -7.21835937 14.92671875 -6.70703125 13.81640625 C-6.06471558 12.41563843 -6.06471558 12.41563843 -5.40942383 10.98657227 C-3.66728343 7.29497283 -1.8255388 3.6510776 0 0 Z M15 58 C7.40777261 74.55431518 -0.1824988 91.10968969 -7.64541626 107.72280884 C-8.21508239 108.99081082 -8.78537456 110.25853172 -9.35629272 111.52597046 C-10.14575972 113.27944381 -10.93233743 115.03421716 -11.71875 116.7890625 C-12.16154297 117.77600098 -12.60433594 118.76293945 -13.06054688 119.77978516 C-14.06494771 121.75169234 -14.06494771 121.75169234 -14 123 C5.47 123 24.94 123 45 123 C40.05 111.615 40.05 111.615 35 100 C33.72511719 97.06480469 32.45023438 94.12960937 31.13671875 91.10546875 C29.83811876 88.12374877 29.83811876 88.12374877 28.53881836 85.14233398 C27.9613254 83.81626971 27.38486141 82.48975693 26.80932617 81.1628418 C23.41258031 73.33367651 19.93513139 65.57823283 16 58 C15.67 58 15.34 58 15 58 Z " fill="#848484" transform="translate(376,337)"/>
<path d="M0 0 C23.43 0 46.86 0 71 0 C71 78.54 71 157.08 71 238 C47.57 238 24.14 238 0 238 C0 159.46 0 80.92 0 0 Z " fill="#595591" transform="translate(467,64)"/>
<path d="M0 0 C38.94 0 77.88 0 118 0 C118 10.89 118 21.78 118 33 C92.92 33 67.84 33 42 33 C42 46.53 42 60.06 42 74 C66.09 74 90.18 74 115 74 C115 84.56 115 95.12 115 106 C90.91 106 66.82 106 42 106 C42 122.5 42 139 42 156 C67.08 156 92.16 156 118 156 C118 166.89 118 177.78 118 189 C79.06 189 40.12 189 0 189 C0 126.63 0 64.26 0 0 Z " fill="#848484" transform="translate(709,341)"/>
<path d="M0 0 C38.61 0 77.22 0 117 0 C117 10.89 117 21.78 117 33 C92.25 33 67.5 33 42 33 C42 46.53 42 60.06 42 74 C65.76 74 89.52 74 114 74 C114 84.56 114 95.12 114 106 C90.24 106 66.48 106 42 106 C42 122.5 42 139 42 156 C66.75 156 91.5 156 117 156 C117 166.89 117 177.78 117 189 C78.39 189 39.78 189 0 189 C0 126.63 0 64.26 0 0 Z " fill="#848484" transform="translate(1033,341)"/>
<path d="M0 0 C44.88 0 89.76 0 136 0 C136 10.89 136 21.78 136 33 C120.49 33 104.98 33 89 33 C89 84.48 89 135.96 89 189 C75.14 189 61.28 189 47 189 C47 137.52 47 86.04 47 33 C31.49 33 15.98 33 0 33 C0 22.11 0 11.22 0 0 Z " fill="#848484" transform="translate(862,341)"/>
<path d="M0 0 C13.86 0 27.72 0 42 0 C42 62.37 42 124.74 42 189 C28.14 189 14.28 189 0 189 C0 126.63 0 64.26 0 0 Z " fill="#848484" transform="translate(208,341)"/>
<path d="M0 0 C5.49086898 5.46917159 5.49086898 5.46917159 7.91015625 8.27734375 C8.67295898 9.1600293 8.67295898 9.1600293 9.45117188 10.06054688 C9.98291016 10.67994141 10.51464844 11.29933594 11.0625 11.9375 C11.62904297 12.59427734 12.19558594 13.25105469 12.77929688 13.92773438 C17.02348679 18.85175003 21.25247487 23.78888387 25.47875977 28.72827148 C29.13579519 33.00010592 32.8139291 37.25320783 36.5 41.5 C40.90340176 46.57681637 45.30337459 51.65652097 49.6875 56.75 C50.1928125 57.33458984 50.698125 57.91917969 51.21875 58.52148438 C57.25170952 65.54331743 57.25170952 65.54331743 57.24050903 70.99235535 C57.24325836 72.02300613 57.24600769 73.05365692 57.24884033 74.11553955 C57.24164978 75.24554382 57.23445923 76.3755481 57.22705078 77.53979492 C57.22734283 78.73016861 57.22763489 79.9205423 57.22793579 81.14698792 C57.22678043 84.41123736 57.21674346 87.67531578 57.20278788 90.93953109 C57.1902933 94.35081856 57.18911102 97.76210932 57.18673706 101.17341614 C57.18051854 107.63322113 57.16410272 114.09295851 57.14403808 120.55273372 C57.12169063 127.90694647 57.11068856 135.26116243 57.10064721 142.61540067 C57.0797368 157.74363814 57.04455361 172.87181231 57 188 C53.39514999 184.43052117 50.0033907 180.76502542 46.75 176.875 C46.27111328 176.30587891 45.79222656 175.73675781 45.29882812 175.15039062 C41.59502231 170.73828729 37.94899602 166.28019511 34.3125 161.8125 C31.73853608 158.68200334 29.12430914 155.58827539 26.5 152.5 C22.38911977 147.66233431 18.3485305 142.77382647 14.34375 137.84765625 C11.12472801 133.93654453 7.84081057 130.08141592 4.54101562 126.23828125 C1.15225214 122.26760888 -0.12566988 120.39174909 -0.12025452 115.2038269 C-0.12162918 114.19137909 -0.12300385 113.17893127 -0.12442017 112.13580322 C-0.12082489 111.02090515 -0.11722961 109.90600708 -0.11352539 108.75732422 C-0.11367142 107.5866037 -0.11381744 106.41588318 -0.1139679 105.20968628 C-0.1133896 101.9950139 -0.10836593 98.78038477 -0.10139394 95.56572104 C-0.09515295 92.20780722 -0.09455601 88.8498926 -0.09336853 85.49197388 C-0.09025742 79.13132452 -0.08204698 72.77069231 -0.07201904 66.41005051 C-0.06085109 59.16951549 -0.05534573 51.92897966 -0.05032361 44.68843818 C-0.0398642 29.79228256 -0.022269 14.89614299 0 0 Z " fill="#4C538D" transform="translate(577,114)"/>
<path d="M0 0 C24.09 0 48.18 0 73 0 C73.99 6.435 73.99 6.435 75 13 C78.09817217 19.19634434 81.62504042 24.21567348 88.2890625 26.93359375 C93.97706714 28.77383054 98.87911792 29.31990199 105 30 C105 48.15 105 66.3 105 85 C85.20679012 85 85.20679012 85 78.5625 83.8125 C77.39328003 83.61394409 77.39328003 83.61394409 76.20043945 83.41137695 C53.40927864 79.32818035 28.79979032 71.43147685 14.03125 52.47265625 C2.88501533 35.82663474 0 19.82828728 0 0 Z " fill="#8F5CA3" transform="translate(0,221)"/>
<path d="M0 0 C15.61755197 11.20389598 24.6946177 33.59691847 28.5859375 51.73046875 C29.15753409 56.24392483 29.22413622 60.70444145 29.25 65.25 C29.270625 66.14074219 29.29125 67.03148438 29.3125 67.94921875 C29.38071818 79.69980038 25.3068015 91.46245401 17 100 C8.45116103 107.11472001 -2.2488368 110.81662835 -13.3828125 110.31640625 C-23.10979803 109.14045725 -32.53576528 105.03986159 -39.3125 97.8125 C-46.71440172 88.27180515 -49.94863799 75.95283873 -49 64 C-46.79481411 51.69105331 -38.56921259 43.49458655 -29 36 C-26.64102848 34.39806232 -24.23301914 32.881862 -21.8125 31.375 C-10.63105235 24.37411758 -3.95328226 16.35365674 -0.625 3.25 C-0.41875 2.1775 -0.2125 1.105 0 0 Z " fill="#FF2741" transform="translate(763,0)"/>
<path d="M0 0 C26.47142379 0 55.27182688 7.46637681 75 26 C75.69222656 26.639375 76.38445312 27.27875 77.09765625 27.9375 C90.69496772 41.770603 94 59.22182861 94 78 C70.24 78 46.48 78 22 78 C20.515 72.555 20.515 72.555 19 67 C14.30443304 58.39146058 9.31305154 56.72522061 0 53 C0 35.51 0 18.02 0 0 Z " fill="#815A9F" transform="translate(122,60)"/>
<path d="M0 0 C30.36 0 60.72 0 92 0 C92 19.14 92 38.28 92 58 C61.64 58 31.28 58 0 58 C0 38.86 0 19.72 0 0 Z " fill="#655695" transform="translate(357,244)"/>
<path d="M0 0 C29.7 0 59.4 0 90 0 C90 19.14 90 38.28 90 58 C60.3 58 30.6 58 0 58 C0 38.86 0 19.72 0 0 Z " fill="#655695" transform="translate(357,64)"/>
<path d="M0 0 C1.10794922 -0.0309375 1.10794922 -0.0309375 2.23828125 -0.0625 C9.18458457 -0.1115039 14.90491792 1.77361781 20.265625 6.45703125 C25.20740989 12.42618721 28.85207501 20.50311696 28.91113281 28.25292969 C28.92074036 29.27118835 28.9303479 30.28944702 28.94024658 31.33856201 C28.94449646 32.4385553 28.94874634 33.53854858 28.953125 34.671875 C28.95882507 35.80522278 28.96452515 36.93857056 28.97039795 38.10626221 C28.97985028 40.50702989 28.98638285 42.90781055 28.99023438 45.30859375 C28.99992483 48.97158641 29.03094062 52.63401442 29.0625 56.296875 C29.06903167 58.630205 29.0742815 60.96353902 29.078125 63.296875 C29.0904718 64.38877136 29.1028186 65.48066772 29.11553955 66.60565186 C29.09405324 73.98612822 27.97117952 78.51841841 24.1875 84.875 C16.59324419 92.2745313 8.65472493 92.95827169 -1.55053711 92.84350586 C-9.95743326 92.50753066 -16.29141798 90.67538387 -22.1875 84.4375 C-26.93028694 77.10773836 -27.70145369 70.85222714 -27.6484375 62.3203125 C-27.65130768 61.28993866 -27.65417786 60.25956482 -27.65713501 59.19796753 C-27.65916771 57.02796883 -27.65369371 54.85795147 -27.64111328 52.68798828 C-27.62508185 49.3918291 -27.64097274 46.09690214 -27.66015625 42.80078125 C-27.65817304 40.68228899 -27.65432775 38.5637975 -27.6484375 36.4453125 C-27.65451019 35.47208038 -27.66058289 34.49884827 -27.6668396 33.49612427 C-27.56228547 23.16486241 -25.01473728 14.20759118 -18.25 6.25 C-12.48921292 1.12522338 -7.52678919 0.05146523 0 0 Z " fill="#FB2740" transform="translate(668.25,68.75)"/>
<path d="M0 0 C23.43 0 46.86 0 71 0 C71 18.48 71 36.96 71 56 C47.57 56 24.14 56 0 56 C0 37.52 0 19.04 0 0 Z " fill="#665695" transform="translate(357,153)"/>
<path d="M0 0 C7.41766521 5.29833229 14.17890856 11.29430223 21.03320312 17.28759766 C24.12940956 19.98332654 27.25257151 22.64724152 30.375 25.3125 C35.63969344 29.81267864 40.85039915 34.3680839 46 39 C41.59956623 44.91782472 36.12522865 49.89217155 30 54 C25.66170338 54 24.66364524 53.46579291 21.1328125 51.2109375 C20.17479736 50.60540039 19.21678223 49.99986328 18.22973633 49.37597656 C17.20517334 48.7156543 16.18061035 48.05533203 15.125 47.375 C14.06885498 46.70436523 13.01270996 46.03373047 11.92456055 45.34277344 C8.61114793 43.23659229 5.30552238 41.11853713 2 39 C-1.0998415 37.02621178 -4.20148495 35.05527917 -7.30322266 33.08447266 C-9.18823959 31.88555466 -11.07208104 30.68478596 -12.95458984 29.48193359 C-16.94007568 26.93546302 -20.92230069 24.39765342 -25 22 C-23.64059863 18.86529575 -22.21165724 17.06850432 -19.55078125 14.94140625 C-18.86693359 14.39033203 -18.18308594 13.83925781 -17.47851562 13.27148438 C-16.40633789 12.42553711 -16.40633789 12.42553711 -15.3125 11.5625 C-14.61705078 11.00240234 -13.92160156 10.44230469 -13.20507812 9.86523438 C-8.90392227 6.42350648 -4.51010935 3.16239646 0 0 Z " fill="#848484" transform="translate(758,271)"/>
<path d="M0 0 C0.33 0 0.66 0 1 0 C1.07443429 5.71082747 1.12873634 11.4213694 1.16479492 17.13256836 C1.17983491 19.07337364 1.20027214 21.0141452 1.22631836 22.95483398 C1.26291295 25.75252632 1.27977448 28.54976733 1.29296875 31.34765625 C1.30845261 32.2083522 1.32393646 33.06904816 1.33988953 33.95582581 C1.34172377 40.59624281 -0.14878963 44.88996658 -3.5625 50.625 C-11.15675581 58.0245313 -19.09527507 58.70827169 -29.30053711 58.59350586 C-37.03747328 58.2843051 -42.86997946 56.88182219 -48.625 51.47265625 C-52.7370048 46.88169634 -54.25753252 43.23818648 -54.1953125 37.140625 C-54.18886719 36.02558594 -54.18242188 34.91054687 -54.17578125 33.76171875 C-54.15902344 32.60285156 -54.14226563 31.44398438 -54.125 30.25 C-54.11597656 29.07566406 -54.10695313 27.90132812 -54.09765625 26.69140625 C-54.07410063 23.79406464 -54.04120652 20.89713559 -54 18 C-53.67 18 -53.34 18 -53 18 C-52.98598145 18.93682617 -52.98598145 18.93682617 -52.97167969 19.89257812 C-52.91751063 22.7624763 -52.83395805 25.63082485 -52.75 28.5 C-52.73582031 29.48226562 -52.72164062 30.46453125 -52.70703125 31.4765625 C-52.45262453 39.10876399 -51.16307455 44.99507918 -45.5 50.375 C-39.454002 54.3048987 -34.87562349 54.36605944 -27.75 54.375 C-26.23212891 54.41173828 -26.23212891 54.41173828 -24.68359375 54.44921875 C-18.25629924 54.47422768 -13.33786832 53.74215636 -8 50 C-2.35557718 44.20703974 -1.67144474 38.49121851 -1.3671875 30.76171875 C-1.32562531 29.88095169 -1.28406311 29.00018463 -1.24124146 28.09272766 C-1.11093187 25.29128912 -0.99280137 22.48948962 -0.875 19.6875 C-0.78856446 17.78316646 -0.70133381 15.87886883 -0.61328125 13.97460938 C-0.39964012 9.31677201 -0.19691692 4.65857315 0 0 Z " fill="#290A0B" transform="translate(696,103)"/>
<path d="M0 0 C1.10794922 -0.0309375 1.10794922 -0.0309375 2.23828125 -0.0625 C10.46063605 -0.12050603 15.71535943 2.80410485 21.75 8.25 C21.42 8.91 21.09 9.57 20.75 10.25 C20.20730469 9.82847656 19.66460938 9.40695313 19.10546875 8.97265625 C18.03232422 8.15087891 18.03232422 8.15087891 16.9375 7.3125 C16.22980469 6.76722656 15.52210938 6.22195312 14.79296875 5.66015625 C10.75525732 2.87313173 6.72109848 3.03446057 2 3 C1.3090625 2.979375 0.618125 2.95875 -0.09375 2.9375 C-6.85011962 2.88670023 -12.65321819 4.90474876 -17.83203125 9.47265625 C-22.40886632 15.20946053 -24.75565161 22.99955689 -25.25 30.25 C-25.58 30.25 -25.91 30.25 -26.25 30.25 C-27.26824121 21.72694395 -25.11330736 15.28795699 -20.25 8.25 C-13.90720518 1.95035345 -8.86238325 0.06059749 0 0 Z " fill="#290C0C" transform="translate(668.25,68.75)"/>
<path d="M0 0 C1.10859375 -0.00128906 2.2171875 -0.00257813 3.359375 -0.00390625 C4.5040625 -0.00003906 5.64875 0.00382813 6.828125 0.0078125 C8.52195312 0.00201172 8.52195312 0.00201172 10.25 -0.00390625 C28.96306489 0.01775239 28.96306489 0.01775239 32.078125 3.1328125 C16.568125 3.1328125 1.058125 3.1328125 -14.921875 3.1328125 C-10.23653047 0.00924948 -5.51897368 0.0062614 0 0 Z " fill="#48241C" transform="translate(660.921875,248.8671875)"/>
<path d="M0 0 C0.33 0 0.66 0 1 0 C1.0093457 0.62455078 1.01869141 1.24910156 1.02832031 1.89257812 C1.08248937 4.7624763 1.16604195 7.63082485 1.25 10.5 C1.26417969 11.48226562 1.27835938 12.46453125 1.29296875 13.4765625 C1.54486187 21.03335617 2.85654591 26.85654591 8.3125 32.3125 C14.56832784 36.24057795 19.66302982 37.46932823 26.9375 37.6875 C27.71673828 37.72166016 28.49597656 37.75582031 29.29882812 37.79101562 C31.19874393 37.8726071 33.09934403 37.93799885 35 38 C34.505 38.99 34.505 38.99 34 40 C14.83363486 41.00056431 14.83363486 41.00056431 7 35 C3.21310035 31.47457676 0.20565596 27.48998502 -0.22705078 22.25097656 C-0.21657715 21.22456055 -0.20610352 20.19814453 -0.1953125 19.140625 C-0.18886719 18.02558594 -0.18242188 16.91054687 -0.17578125 15.76171875 C-0.15902344 14.60285156 -0.14226563 13.44398438 -0.125 12.25 C-0.11597656 11.07566406 -0.10695313 9.90132812 -0.09765625 8.69140625 C-0.07410063 5.79406464 -0.04120652 2.89713559 0 0 Z " fill="#100605" transform="translate(642,121)"/>
<path d="M0 0 C0.33 0 0.66 0 1 0 C1.01458252 0.63502441 1.02916504 1.27004883 1.04418945 1.92431641 C1.11905089 4.82513081 1.21558426 7.72484206 1.3125 10.625 C1.33505859 11.62402344 1.35761719 12.62304688 1.38085938 13.65234375 C1.58406944 19.23138366 2.10370977 23.08889918 5 28 C4.6875 30.375 4.6875 30.375 4 32 C-0.75143188 25.55563668 -0.48095067 19.87485059 -0.25 12.0625 C-0.23195313 10.90169922 -0.21390625 9.74089844 -0.1953125 8.54492188 C-0.14841259 5.69575253 -0.08279059 2.84831469 0 0 Z " fill="#26090B" transform="translate(642,121)"/>
<path d="M0 0 C0 0.66 0 1.32 0 2 C-2.31 2.33 -4.62 2.66 -7 3 C-7 2.67 -7 2.34 -7 2 C-12.28 1.67 -17.56 1.34 -23 1 C-23 0.67 -23 0.34 -23 0 C-19.72966072 -0.19689005 -16.45872059 -0.38089008 -13.1875 -0.5625 C-12.25873047 -0.61857422 -11.32996094 -0.67464844 -10.37304688 -0.73242188 C-9.48037109 -0.78076172 -8.58769531 -0.82910156 -7.66796875 -0.87890625 C-6.84578857 -0.9260376 -6.0236084 -0.97316895 -5.17651367 -1.02172852 C-3 -1 -3 -1 0 0 Z " fill="#511016" transform="translate(683,158)"/>
<path d="M0 0 C-1.00976646 3.63515926 -1.94643718 4.95669389 -4.9375 7.375 C-6.4534375 8.179375 -6.4534375 8.179375 -8 9 C-8.99 8.67 -9.98 8.34 -11 8 C-3.42105263 0 -3.42105263 0 0 0 Z " fill="#190808" transform="translate(693,150)"/>
</svg>
